<?xml version="1.0" encoding="utf-8"?>
<!-- Generator: Adobe Illustrator 18.0.0, SVG Export Plug-In . SVG Version: 6.00 Build 0)  -->
<!DOCTYPE svg PUBLIC "-//W3C//DTD SVG 1.1//EN" "http://www.w3.org/Graphics/SVG/1.1/DTD/svg11.dtd">
<svg version="1.1" id="Layer_1" xmlns="http://www.w3.org/2000/svg" xmlns:xlink="http://www.w3.org/1999/xlink" x="0px" y="0px"
	 viewBox="0 0 300 300" enable-background="new 0 0 300 300" xml:space="preserve">
<g>
	<path fill="#FFFFFF" stroke="#FFFFFF" stroke-width="10" stroke-miterlimit="10" d="M230,3.8L230,3.8H71.5
		c-10.9,0-19.7,8.9-19.7,19.7V43H40.2C18.6,43,1.1,62.5,1.1,86.5v85.7c0,24,17.6,43.5,39.1,43.5h9.9h9v-9v-30.2
		c0-2.5,0.8-4.9,2.1-6.8v108c0,4.7,1.9,9.3,5.2,12.6c3.3,3.3,7.8,5.2,12.5,5.2h98.8c4.6,0,9.2-1.9,12.5-5.1l0,0l0,0l44.8-44.8
		c3.4-3.4,5.2-7.8,5.2-12.6v-63.2c1.3,2,2,4.3,2,6.8v30.2v9h9h9.9c21.6,0,39.1-19.5,39.1-43.5V86.5c0-24-17.6-43.5-39.1-43.5h-11.6
		V23.5C249.6,12.7,240.8,3.9,230,3.8L230,3.8L230,3.8z"/>
	<g>
		<polygon fill="#FFFFFF" points="81.3,146 81.3,275.3 177.6,275.3 223,229.9 223,136.5 		"/>
		<path fill="#45455E" d="M240.6,23.5c0-5.9-4.8-10.7-10.7-10.7H71.5c-5.9,0-10.7,4.8-10.7,10.7v30.2h179.8V23.5z"/>
		<path fill="#272736" d="M262.3,52H41.2c-16.6,0-30.1,15.4-30.1,34.5v85.7c0,19,13.5,34.5,30.1,34.5h9.9v-30.2
			c0-11.8,9.6-21.4,21.4-21.4H231c11.8,0,21.4,9.6,21.4,21.4v30.2h9.9c16.6,0,30.1-15.4,30.1-34.5V86.5
			C292.4,67.4,278.9,52,262.3,52z"/>
		<path fill="#E74000" d="M219.9,94.7c-6.6,0-11.9-5.3-11.9-11.9s5.3-11.9,11.9-11.9c6.6,0,11.9,5.3,11.9,11.9
			C231.8,89.3,226.4,94.7,219.9,94.7z"/>
		<path fill="#22B900" d="M260.8,94.7c-6.6,0-11.9-5.3-11.9-11.9s5.3-11.9,11.9-11.9c6.6,0,11.9,5.3,11.9,11.9
			C272.7,89.3,267.4,94.7,260.8,94.7z"/>
		<path d="M214.8,228.6H177c-0.5,0-1,0.2-1.4,0.6c-0.4,0.4-0.6,0.8-0.6,1.4V269H88.6V153.6H71.2v124.1c0,2.3,0.9,4.6,2.6,6.2
			c1.6,1.6,3.9,2.6,6.2,2.6h98.8c2.3,0,4.5-0.9,6.2-2.5l44.8-44.8c1.7-1.7,2.6-3.8,2.6-6.2v-79.3H215L214.8,228.6L214.8,228.6z"/>
	</g>
</g>
<g>
	<path fill="#45C7FF" stroke="#FFFFFF" stroke-width="13" stroke-miterlimit="10" d="M139,38.6c49.9-3.6,100.9,15.1,136.5,50.2
		c4.7,4.8,4.1,13.2-0.9,17.6c-4.5,5.3-13.6,5.4-18.2,0.2c-30.5-29.3-73.4-45.2-115.7-42c-35.1,2.3-69,17.4-94.5,41.6
		c-2.3,2.3-5.2,4.2-8.5,4.4c-8.3,1-16-7.7-14.2-15.9c0.5-2.9,2.4-5.4,4.5-7.3C57.8,58.8,97.8,41.3,139,38.6z"/>
	<path fill="#45C7FF" stroke="#FFFFFF" stroke-width="13" stroke-miterlimit="10" d="M137.7,87.5c38.2-4.2,77.9,9.9,104.9,37.2
		c4.2,4.8,3.7,12.7-1,17.1c-4.3,5.2-12.9,5.8-17.8,1.1c-17.3-17.1-40.7-27.9-65-29.7c-29.5-2.4-59.6,8.7-80.6,29.5
		c-4.8,5.1-13.9,4.5-18.2-0.9c-4.7-4.4-5.1-12.5-0.6-17.2C80.3,103.8,108.5,90.5,137.7,87.5z"/>
	<path fill="#45C7FF" stroke="#FFFFFF" stroke-width="13" stroke-miterlimit="10" d="M143.4,135.8c24.1-2.4,49,6.8,65.8,24.3
		c4.6,4.8,4.1,13-0.8,17.4c-4.4,5.3-13.2,5.7-18,0.7c-9.5-9.7-22.6-15.8-36.1-16.6c-15.4-1.1-31,5-41.9,15.8
		c-2.7,3-6.7,4.9-10.8,4.4c-9.5-0.7-16.1-13.3-9.5-20.9C105.3,146.6,124,137.7,143.4,135.8z"/>
	<path fill="#45C7FF" stroke="#FFFFFF" stroke-width="13" stroke-miterlimit="10" d="M147.1,180.8c15.5-2.6,31.3,10.2,31.8,26
		c1.4,15.5-12.2,30.1-27.7,29.8c-13.9,0.5-26.9-11.1-28.1-24.9C121.1,197.1,132.5,182.5,147.1,180.8z"/>
</g>
<g>
	<path fill="#45C7FF" d="M139,38.6c49.9-3.6,100.9,15.1,136.5,50.2c4.7,4.8,4.1,13.2-0.9,17.6c-4.5,5.3-13.6,5.4-18.2,0.2
		c-30.5-29.3-73.4-45.2-115.7-42c-35.1,2.3-69,17.4-94.5,41.6c-2.3,2.3-5.2,4.2-8.5,4.4c-8.3,1-16-7.7-14.2-15.9
		c0.5-2.9,2.4-5.4,4.5-7.3C57.8,58.8,97.8,41.3,139,38.6z"/>
	<path fill="#45C7FF" d="M137.7,87.5c38.2-4.2,77.9,9.9,104.9,37.2c4.2,4.8,3.7,12.7-1,17.1c-4.3,5.2-12.9,5.8-17.8,1.1
		c-17.3-17.1-40.7-27.9-65-29.7c-29.5-2.4-59.6,8.7-80.6,29.5c-4.8,5.1-13.9,4.5-18.2-0.9c-4.7-4.4-5.1-12.5-0.6-17.2
		C80.3,103.8,108.5,90.5,137.7,87.5z"/>
	<path fill="#45C7FF" d="M143.4,135.8c24.1-2.4,49,6.8,65.8,24.3c4.6,4.8,4.1,13-0.8,17.4c-4.4,5.3-13.2,5.7-18,0.7
		c-9.5-9.7-22.6-15.8-36.1-16.6c-15.4-1.1-31,5-41.9,15.8c-2.7,3-6.7,4.9-10.8,4.4c-9.5-0.7-16.1-13.3-9.5-20.9
		C105.3,146.6,124,137.7,143.4,135.8z"/>
	<path fill="#45C7FF" d="M147.1,180.8c15.5-2.6,31.3,10.2,31.8,26c1.4,15.5-12.2,30.1-27.7,29.8c-13.9,0.5-26.9-11.1-28.1-24.9
		C121.1,197.1,132.5,182.5,147.1,180.8z"/>
</g>
</svg>
